<svg width="20" height="20" viewBox="0 0 20 20" fill="none" xmlns="http://www.w3.org/2000/svg">
<path d="M19.6011 9.22984C18.3147 8.76785 17.5234 7.45867 17.6228 6.42489C17.6228 6.25493 17.521 6.097 17.3923 5.98544C17.2635 5.87442 17.0638 5.82638 16.8967 5.85325C14.9363 6.14087 13.1413 4.70669 12.9634 2.69068C12.9474 2.50873 12.8478 2.34506 12.6933 2.24721C12.5394 2.14994 12.3477 2.12877 12.1778 2.19229C10.5888 2.7742 9.08732 1.72202 8.48822 0.351004C8.37607 0.0946378 8.09799 -0.0466898 7.82388 0.013974C3.31323 1.02049 0 5.3772 0 10C0 15.4926 4.50741 20 9.99997 20C15.4925 20 19.9999 15.4926 19.9999 10C19.9837 9.65105 19.9812 9.36601 19.6011 9.22984ZM4.11132 10.6301C3.78772 10.6301 3.52538 10.3677 3.52538 10.0441C3.52538 9.72046 3.78772 9.4582 4.11132 9.4582C4.43491 9.4582 4.69725 9.72046 4.69725 10.0441C4.69725 10.3677 4.43487 10.6301 4.11132 10.6301ZM6.48436 15.2735C5.51506 15.2735 4.72655 14.4849 4.72655 13.5156C4.72655 12.5464 5.51506 11.7578 6.48436 11.7578C7.45365 11.7578 8.24217 12.5464 8.24217 13.5156C8.24217 14.4849 7.45369 15.2735 6.48436 15.2735ZM7.07029 8.24223C6.42428 8.24223 5.89842 7.71637 5.89842 7.07036C5.89842 6.42434 6.42428 5.89849 7.07029 5.89849C7.71631 5.89849 8.24217 6.42434 8.24217 7.07036C8.24217 7.71637 7.71631 8.24223 7.07029 8.24223ZM11.7578 16.4453C11.1118 16.4453 10.5859 15.9195 10.5859 15.2735C10.5859 14.6274 11.1118 14.1016 11.7578 14.1016C12.4038 14.1016 12.9297 14.6274 12.9297 15.2735C12.9297 15.9195 12.4038 16.4453 11.7578 16.4453ZM12.3437 11.7578C11.3744 11.7578 10.5859 10.9693 10.5859 10C10.5859 9.03074 11.3744 8.24223 12.3437 8.24223C13.313 8.24223 14.1015 9.03074 14.1015 10C14.1015 10.9693 13.3131 11.7578 12.3437 11.7578ZM15.83 12.9738C15.5064 12.9738 15.2441 12.7115 15.2441 12.3879C15.2441 12.0642 15.5064 11.8019 15.83 11.8019C16.1536 11.8019 16.416 12.0642 16.416 12.3879C16.416 12.7115 16.1536 12.9738 15.83 12.9738Z" fill="#7A8AA0"/>
</svg>
