<svg width="40" height="40" viewBox="0 0 40 40" fill="none" xmlns="http://www.w3.org/2000/svg">
<rect width="40" height="40" rx="20" fill="white"/>
<path d="M30.6943 13.315C30.2335 12.914 29.7215 12.6133 29.1071 12.513C28.3391 12.4128 27.571 12.914 27.059 13.2649C26.547 13.6158 25.523 14.518 25.1134 14.8689C24.7038 15.2198 23.6797 15.4203 21.9901 16.4228C20.3004 17.4253 13.7466 21.5357 13.7466 21.5357H15.4363L7.80721 25.3953H8.57523L7.5 26.1974C8.11442 26.3477 8.72884 26.2475 9.29206 25.9467V26.1974C9.29206 26.1974 18.3547 22.6885 20.0956 23.5908L19.0204 23.8916C19.1228 23.8916 20.8124 23.9918 20.8124 23.9918C20.9148 24.6936 21.3244 25.3452 21.9389 25.6961C22.9629 26.3477 23.0141 26.7487 23.0141 26.7487C23.0141 26.7487 22.5021 26.9492 22.5021 27.25C23.4749 26.9492 24.4989 26.9492 25.4206 27.25C25.4206 27.25 25.3694 26.9492 24.6525 26.7487C23.9357 26.448 23.3213 25.9969 22.8605 25.3452C22.4509 24.7938 22.2973 24.0921 22.5533 23.4404C22.8093 22.7888 23.6797 22.4379 25.4718 21.5357C27.571 20.483 28.0831 19.681 28.3391 19.0294C28.5951 18.3777 29.1071 17.1747 29.3119 16.5732C29.5167 16.0218 29.8751 15.5707 30.3359 15.1697C30.8991 14.8689 31.5136 14.6183 32.0768 14.4178C32.1792 14.4679 31.0528 13.5656 30.6943 13.315Z" fill="black"/>
</svg>
