<svg width="24" height="25" viewBox="0 0 24 25" fill="none" xmlns="http://www.w3.org/2000/svg">
<circle cx="12.0005" cy="12.0005" r="12.0005" fill="#011D32"/>
<path fill-rule="evenodd" clip-rule="evenodd" d="M18.4785 10.7253V13.2741C14.1969 13.2741 10.7259 9.80311 10.7259 5.52148H13.2747C13.2747 8.39545 15.6045 10.7253 18.4785 10.7253Z" fill="#01C8A1"/>
<path fill-rule="evenodd" clip-rule="evenodd" d="M18.4785 13.2747V10.7259C14.1969 10.7259 10.7259 14.1969 10.7259 18.4785H13.2747C13.2747 15.6045 15.6045 13.2747 18.4785 13.2747Z" fill="#01E3B5"/>
<path fill-rule="evenodd" clip-rule="evenodd" d="M13.275 18.4824C13.275 18.4807 13.275 18.479 13.275 18.4773C13.275 14.1957 9.80409 10.7247 5.52246 10.7247V13.2735C8.39643 13.2735 10.7262 15.6033 10.7262 18.4773H13.275V18.4824Z" fill="#01C8A1"/>
<path fill-rule="evenodd" clip-rule="evenodd" d="M5.52246 10.7253V13.2741C9.80409 13.2741 13.275 9.80311 13.275 5.52148H10.7262C10.7262 8.39545 8.39643 10.7253 5.52246 10.7253Z" fill="#01E3B5"/>
<path fill-rule="evenodd" clip-rule="evenodd" d="M10.7266 5.54088C10.7304 7.1071 11.1987 8.56419 12.001 9.78169C12.8032 8.56423 13.2715 7.1072 13.2754 5.54104C13.2753 5.53452 13.2753 5.528 13.2753 5.52148H10.7266C10.7266 5.52795 10.7266 5.53442 10.7266 5.54088Z" fill="#01C8A1"/>
</svg>
