<svg width="40" height="40" viewBox="0 0 40 40" fill="none" xmlns="http://www.w3.org/2000/svg">
<rect width="40" height="40" rx="20" fill="white"/>
<path d="M20.1529 13.1976C22.5614 13.1976 24.5138 12.0621 24.5138 10.6613C24.5138 9.26054 22.5614 8.125 20.1529 8.125C17.7444 8.125 15.792 9.26054 15.792 10.6613C15.792 12.0621 17.7444 13.1976 20.1529 13.1976Z" fill="#E6007A"/>
<path d="M20.1529 32.307C22.5614 32.307 24.5138 31.1714 24.5138 29.7707C24.5138 28.3699 22.5614 27.2344 20.1529 27.2344C17.7444 27.2344 15.792 28.3699 15.792 29.7707C15.792 31.1714 17.7444 32.307 20.1529 32.307Z" fill="#E6007A"/>
<path d="M14.0763 16.7087C15.2805 14.623 15.2727 12.364 14.0588 11.6632C12.845 10.9623 10.8847 12.085 9.68046 14.1707C8.47623 16.2564 8.48404 18.5154 9.69792 19.2163C10.9118 19.9171 12.8721 18.7945 14.0763 16.7087Z" fill="#E6007A"/>
<path d="M30.6251 26.2617C31.8293 24.176 31.8222 21.9174 30.6091 21.217C29.3961 20.5166 27.4365 21.6397 26.2322 23.7254C25.028 25.8111 25.0351 28.0697 26.2482 28.7701C27.4613 29.4705 29.4209 28.3474 30.6251 26.2617Z" fill="#E6007A"/>
<path d="M14.0588 28.7704C15.2727 28.0696 15.2805 25.8106 14.0763 23.7249C12.8721 21.6391 10.9118 20.5165 9.69792 21.2173C8.48404 21.9182 8.47623 24.1772 9.68046 26.2629C10.8847 28.3486 12.845 29.4713 14.0588 28.7704Z" fill="#E6007A"/>
<path d="M30.6101 19.2166C31.8232 18.5162 31.8303 16.2576 30.6261 14.1719C29.4218 12.0862 27.4622 10.9631 26.2492 11.6635C25.0361 12.3639 25.029 14.6225 26.2332 16.7082C27.4374 18.7939 29.397 19.917 30.6101 19.2166Z" fill="#E6007A"/>
</svg>
