<svg width="40" height="40" viewBox="0 0 40 40" fill="none" xmlns="http://www.w3.org/2000/svg">
<rect width="40" height="40" rx="20" fill="white"/>
<path d="M28.5478 15.0537C28.4795 15.1232 28.3981 15.1783 28.3083 15.2161C28.2185 15.2538 28.1221 15.2733 28.0247 15.2734H9.49131C8.83617 15.2734 8.50433 14.4745 8.96232 14.0001L12.0023 10.8505C12.0708 10.7793 12.1529 10.7227 12.2437 10.6839C12.3345 10.6452 12.4322 10.6252 12.531 10.625H31.1337C31.7928 10.625 32.1229 11.4322 31.6568 11.9044L28.5478 15.0537ZM28.5478 29.1209C28.4083 29.2583 28.2204 29.3352 28.0247 29.335H9.49131C8.83617 29.335 8.50433 28.5561 8.96232 28.0934L12.0023 25.0225C12.0716 24.9528 12.1541 24.8974 12.2449 24.8597C12.3356 24.822 12.433 24.8027 12.5313 24.8028H31.1337C31.7928 24.8028 32.1229 25.5898 31.6568 26.0501L28.5478 29.1209ZM28.5478 17.9277C28.4083 17.7905 28.2204 17.7137 28.0247 17.7139H9.49131C8.83617 17.7139 8.50433 18.4928 8.96232 18.9555L12.0023 22.0263C12.0716 22.096 12.154 22.1513 12.2447 22.189C12.3354 22.2267 12.4327 22.2461 12.531 22.246H31.1337C31.7928 22.246 32.1229 21.459 31.6568 20.9988L28.5478 17.9277Z" fill="url(#paint0_linear_15220_80887)"/>
<defs>
<linearGradient id="paint0_linear_15220_80887" x1="8.75" y1="29.335" x2="27.0478" y2="6.71941" gradientUnits="userSpaceOnUse">
<stop stop-color="#9945FF"/>
<stop offset="0.138458" stop-color="#7962E7"/>
<stop offset="1" stop-color="#00D18C"/>
</linearGradient>
</defs>
</svg>
