<svg width="40" height="40" viewBox="0 0 40 40" fill="none" xmlns="http://www.w3.org/2000/svg">
<path fill-rule="evenodd" clip-rule="evenodd" d="M0 20C0 8.95431 8.95431 0 20 0C31.0457 0 40 8.95431 40 20C40 31.0457 31.0457 40 20 40C8.95431 40 0 31.0457 0 20Z" fill="#55ACEE"/>
<path fill-rule="evenodd" clip-rule="evenodd" d="M19.401 16.2543L19.443 16.9463L18.7435 16.8616C16.1974 16.5368 13.973 15.4351 12.0844 13.585L11.1611 12.667L10.9233 13.3449C10.4197 14.8561 10.7414 16.452 11.7907 17.5254C12.3503 18.1186 12.2243 18.2033 11.2591 17.8502C10.9233 17.7373 10.6295 17.6525 10.6016 17.6949C10.5036 17.7937 10.8394 19.079 11.1052 19.5874C11.4689 20.2936 12.2104 20.9856 13.0218 21.3952L13.7072 21.72L12.8958 21.7342C12.1124 21.7342 12.0844 21.7483 12.1684 22.0449C12.4482 22.9629 13.5534 23.9374 14.7844 24.3611L15.6518 24.6577L14.8964 25.1096C13.7772 25.7593 12.4622 26.1265 11.1471 26.1548C10.5176 26.1689 10 26.2254 10 26.2678C10 26.409 11.7067 27.1999 12.7 27.5106C15.6798 28.4286 19.2191 28.0332 21.8772 26.4655C23.7658 25.3497 25.6543 23.1324 26.5357 20.9856C27.0113 19.8416 27.487 17.7514 27.487 16.7486C27.487 16.0989 27.529 16.0142 28.3124 15.2374C28.774 14.7855 29.2077 14.2911 29.2916 14.1499C29.4315 13.8816 29.4175 13.8816 28.7041 14.1217C27.515 14.5454 27.3471 14.4889 27.9346 13.8533C28.3683 13.4014 28.8859 12.5822 28.8859 12.3421C28.8859 12.2998 28.6761 12.3704 28.4383 12.4975C28.1865 12.6387 27.6269 12.8506 27.2072 12.9777L26.4518 13.2178L25.7663 12.7517C25.3885 12.4975 24.8569 12.215 24.5771 12.1303C23.8637 11.9325 22.7725 11.9608 22.129 12.1868C20.3803 12.8223 19.2751 14.4606 19.401 16.2543Z" fill="white"/>
</svg>
